<?xml version="1.0" encoding="UTF-8"?>
<!DOCTYPE svg PUBLIC "-//W3C//DTD SVG 1.1//EN" "http://www.w3.org/Graphics/SVG/1.1/DTD/svg11.dtd">
<svg xmlns="http://www.w3.org/2000/svg" viewBox="0 0 512 512" width="auto" height="18" preserveAspectRatio="xMidYMid meet" style="shape-rendering:geometricPrecision; text-rendering:geometricPrecision; image-rendering:optimizeQuality; fill-rule:evenodd; clip-rule:evenodd">
  <g><path style="opacity:1" fill="#d4010c" d="M -0.5,-0.5 C 170.167,-0.5 340.833,-0.5 511.5,-0.5C 511.5,52.1667 511.5,104.833 511.5,157.5C 426.124,111.568 340.791,65.2351 255.5,18.5C 170.405,64.9257 85.0713,110.926 -0.5,156.5C -0.5,104.167 -0.5,51.8333 -0.5,-0.5 Z"/></g>
  <g><path style="opacity:1" fill="#fefdfd" d="M 511.5,157.5 C 511.5,179.5 511.5,201.5 511.5,223.5C 426.412,176.958 341.079,130.958 255.5,85.5C 170.086,131.204 84.7531,176.871 -0.5,222.5C -0.5,200.5 -0.5,178.5 -0.5,156.5C 85.0713,110.926 170.405,64.9257 255.5,18.5C 340.791,65.2351 426.124,111.568 511.5,157.5 Z"/></g>
  <g><path style="opacity:1" fill="#d4030d" d="M 511.5,223.5 C 511.5,245.167 511.5,266.833 511.5,288.5C 426.094,242.466 340.76,196.466 255.5,150.5C 169.795,196.016 84.4612,242.016 -0.5,288.5C -0.5,266.5 -0.5,244.5 -0.5,222.5C 84.7531,176.871 170.086,131.204 255.5,85.5C 341.079,130.958 426.412,176.958 511.5,223.5 Z"/></g>
  <g><path style="opacity:1" fill="#fefdfd" d="M 511.5,288.5 C 511.5,310.5 511.5,332.5 511.5,354.5C 426.03,308.437 340.697,262.437 255.5,216.5C 169.881,262.154 84.5478,308.154 -0.5,354.5C -0.5,332.5 -0.5,310.5 -0.5,288.5C 84.4612,242.016 169.795,196.016 255.5,150.5C 340.76,196.466 426.094,242.466 511.5,288.5 Z"/></g>
  <g><path style="opacity:1" fill="#d4030d" d="M 511.5,354.5 C 511.5,376.167 511.5,397.833 511.5,419.5C 426.03,373.437 340.697,327.437 255.5,281.5C 170.177,327.495 84.8432,373.495 -0.5,419.5C -0.5,397.833 -0.5,376.167 -0.5,354.5C 84.5478,308.154 169.881,262.154 255.5,216.5C 340.697,262.437 426.03,308.437 511.5,354.5 Z"/></g>
  <g><path style="opacity:1" fill="#fefdfd" d="M 511.5,419.5 C 511.5,441.5 511.5,463.5 511.5,485.5C 425.906,439.887 340.572,393.887 255.5,347.5C 170.208,393.481 84.8748,439.481 -0.5,485.5C -0.5,463.5 -0.5,441.5 -0.5,419.5C 84.8432,373.495 170.177,327.495 255.5,281.5C 340.697,327.437 426.03,373.437 511.5,419.5 Z"/></g>
  <g><path style="opacity:1" fill="#d4010c" d="M 511.5,485.5 C 511.5,494.167 511.5,502.833 511.5,511.5C 340.833,511.5 170.167,511.5 -0.5,511.5C -0.5,502.833 -0.5,494.167 -0.5,485.5C 84.8748,439.481 170.208,393.481 255.5,347.5C 340.572,393.887 425.906,439.887 511.5,485.5 Z"/></g>
</svg>